Coordinates
version=1
nRows=22
nColumns=24
inDegrees=yes

Units are S.I. units (second, meters, Newtons, ...)
Angles are in degrees.

endheader
time	pelvis_tilt	pelvis_list	pelvis_rotation	pelvis_tx	pelvis_ty	pelvis_tz	hip_flexion_r	hip_adduction_r	hip_rotation_r	knee_angle_r	ankle_angle_r	subtalar_angle_r	mtp_angle_r	hip_flexion_l	hip_adduction_l	hip_rotation_l	knee_angle_l	ankle_angle_l	subtalar_angle_l	mtp_angle_l	lumbar_extension	lumbar_bending	lumbar_rotation
      4.13500000	    -19.26173387	     -6.11870629	     -3.79582562	     -1.69134962	     -0.02225138	     -0.33783356	     25.64402259	     11.82562889	     -2.42852647	    -21.50043949	      7.99075364	    -13.97889936	     -1.15344608	     34.42623721	     -9.68874848	     -4.18751874	    -62.30440344	     -5.43917983	     -9.09113037	     20.53959368	     22.97139132	      4.89785327	    -15.44984659
      4.14000000	    -19.29775272	     -5.74152739	     -3.91009956	     -1.68524572	     -0.02112061	     -0.33749860	     24.86987703	     11.52126467	     -2.08764224	    -20.83852088	      8.02432576	    -13.86334800	     -1.37508755	     35.13369891	     -9.35132628	     -4.50620932	    -61.64376118	     -4.90862827	     -9.00369289	     20.62933219	     22.98025436	      4.57110384	    -15.07486012
      4.14500000	    -19.28506059	     -5.39525487	     -4.09340061	     -1.67915197	     -0.02003022	     -0.33709961	     24.02609827	     11.27041121	     -1.63354452	    -20.15625344	      8.08382641	    -13.69269658	     -1.68196065	     35.75758273	     -9.10914602	     -4.91671931	    -60.92795332	     -4.41740128	     -8.97577395	     20.71733519	     22.92858315	      4.30380135	    -14.64697179
      4.15000000	    -19.32080522	     -5.04667035	     -4.21206598	     -1.67308217	     -0.01905495	     -0.33677840	     23.26273595	     10.97283415	     -1.35485149	    -19.49327755	      8.11641221	    -13.53688513	     -1.87504636	     36.43377993	     -8.82486095	     -5.24846396	    -60.15168816	     -3.94751795	     -8.87035915	     20.75947128	     22.93286168	      4.00572299	    -14.28118931
      4.15500000	    -19.33160496	     -4.71990402	     -4.35933002	     -1.66702726	     -0.01813928	     -0.33647658	     22.47004521	     10.69560860	     -1.04096458	    -18.82491511	      8.15916527	    -13.33968206	     -2.05515143	     37.05979322	     -8.59254693	     -5.62600447	    -59.32022290	     -3.50553110	     -8.78408290	     20.77912555	     22.90663609	      3.74655950	    -13.89520797
      4.16000000	    -19.30235011	     -4.42764704	     -4.52386927	     -1.66099931	     -0.01727835	     -0.33616644	     21.63362163	     10.44949676	     -0.71650482	    -18.15338573	      8.21300850	    -13.10585778	     -2.27039507	     37.62551094	     -8.41737527	     -6.02646110	    -58.44121728	     -3.08639531	     -8.72109354	     20.77666456	     22.82881472	      3.52729762	    -13.50310244
      4.16500000	    -19.32094687	     -4.13771770	     -4.64775394	     -1.65498726	     -0.01653340	     -0.33590884	     20.87277724	     10.17920804	     -0.52867825	    -17.50258842	      8.23711323	    -12.88684269	     -2.40781266	     38.23296694	     -8.22456273	     -6.37860087	    -57.50159659	     -2.69445947	     -8.57786366	     20.76409012	     22.80604201	      3.29129839	    -13.15219867
      4.17000000	    -19.29344519	     -3.87761295	     -4.79921568	     -1.64899408	     -0.01584083	     -0.33566990	     20.06103474	      9.93591508	     -0.29710029	    -16.85260094	      8.29090000	    -12.61239438	     -2.53185023	     38.76538312	     -8.08580498	     -6.76739599	    -56.51231787	     -2.30928417	     -8.45752126	     20.72694535	     22.72539384	      3.10132686	    -12.78774968
      4.17500000	    -19.34519481	     -3.64899617	     -4.87507787	     -1.64302430	     -0.01533057	     -0.33553285	     19.34834433	      9.69557439	     -0.18268439	    -16.20833591	      8.33039898	    -12.38713913	     -2.58650050	     39.39386352	     -7.93426607	     -7.06393865	    -55.48590667	     -1.96769253	     -8.26883630	     20.70126817	     22.73331398	      2.91423270	    -12.53125569
      4.18000000	    -19.26402382	     -3.40516720	     -5.06912047	     -1.63706317	     -0.01471753	     -0.33527495	     18.51038580	      9.45968248	     -0.02005573	    -15.60225764	      8.35671812	    -12.04939924	     -2.63105473	     39.80306290	     -7.85772201	     -7.51727588	    -54.36761187	     -1.60171284	     -8.07665683	     20.63636958	     22.58503664	      2.75264760	    -12.10615285
      4.18500000	    -19.26750330	     -3.19702426	     -5.17748894	     -1.63111029	     -0.01428891	     -0.33514502	     17.77435465	      9.23187334	      0.04121709	    -15.00310728	      8.37133966	    -11.77842418	     -2.64215565	     40.31355467	     -7.76436092	     -7.87171509	    -53.21261613	     -1.29192442	     -7.80207315	     20.58504052	     22.53441501	      2.60038144	    -11.79763918
      4.19000000	    -19.23389461	     -2.99468138	     -5.31735342	     -1.62519713	     -0.01391264	     -0.33497609	     17.01332405	      9.01158674	      0.11794753	    -14.42705720	      8.40067180	    -11.45838980	     -2.60785156	     40.75036739	     -7.70445852	     -8.26614449	    -52.00074017	     -0.96634578	     -7.50195923	     20.52069653	     22.43092380	      2.45624406	    -11.46430824
      4.19500000	    -19.20442544	     -2.81214323	     -5.44203890	     -1.61928071	     -0.01362558	     -0.33486621	     16.26628045	      8.79987119	      0.17155083	    -13.86704540	      8.43189094	    -11.14111631	     -2.53922453	     41.16923222	     -7.65732712	     -8.65614742	    -50.73573297	     -0.66138961	     -7.15964487	     20.44978914	     22.33346631	      2.33163014	    -11.15532746
      4.20000000	    -19.17766076	     -2.64015063	     -5.56784002	     -1.61339902	     -0.01342934	     -0.33477883	     15.54186592	      8.59407004	      0.21222802	    -13.33693652	      8.46503461	    -10.82271326	     -2.43904935	     41.56821062	     -7.62542065	     -9.05272940	    -49.42071074	     -0.37086915	     -6.77289543	     20.37821698	     22.22972463	      2.21916089	    -10.85886933
      4.20500000	    -19.19474397	     -2.47887310	     -5.65729888	     -1.60751938	     -0.01337031	     -0.33469857	     14.87280754	      8.39524133	      0.22620084	    -12.81936542	      8.50956075	    -10.53988705	     -2.35063084	     42.00287447	     -7.59423607	     -9.43066265	    -48.06334977	     -0.13663145	     -6.31027296	     20.33411990	     22.17765176	      2.09550895	    -10.57607928
      4.21000000	    -19.14980366	     -2.31268020	     -5.80410641	     -1.60165741	     -0.01331655	     -0.33462970	     14.16573716	      8.19008362	      0.26780098	    -12.35344368	      8.56641679	    -10.20075116	     -2.20689432	     42.31458216	     -7.59260448	     -9.89143630	    -46.62896424	      0.14196188	     -5.83452998	     20.27229207	     22.04984669	      1.99696121	    -10.26510167
      4.21500000	    -19.14319406	     -2.15089808	     -5.92113026	     -1.59581794	     -0.01337941	     -0.33459413	     13.51649312	      7.98424698	      0.29721173	    -11.91206046	      8.62088276	     -9.89844819	     -2.07243337	     42.65291605	     -7.58000301	    -10.32901894	    -45.15071078	      0.35957258	     -5.29479874	     20.22456325	     21.96136984	      1.89030004	     -9.98465885
      4.22000000	    -19.14859380	     -1.99071277	     -6.03666053	     -1.58999271	     -0.01354142	     -0.33455338	     12.90002046	      7.78058000	      0.33361099	    -11.50565889	      8.69069081	     -9.60814725	     -1.94610588	     42.97780742	     -7.57423309	    -10.78705735	    -43.62468733	      0.55278266	     -4.72354024	     20.19090549	     21.88326908	      1.78256984	     -9.71229891
      4.22500000	    -19.15989445	     -1.82820136	     -6.15548211	     -1.58418055	     -0.01378703	     -0.33452405	     12.31186213	      7.57363901	      0.37757085	    -11.13754078	      8.77481071	     -9.32575831	     -1.83261572	     43.28130476	     -7.57195401	    -11.27111426	    -42.05250363	      0.71476333	     -4.11206946	     20.17570672	     21.80833121	      1.67422022	     -9.43835409
      4.23000000	    -19.17370187	     -1.66230865	     -6.27539159	     -1.57838016	     -0.01411081	     -0.33450781	     11.74898518	      7.36149703	      0.42910319	    -10.80873906	      8.87582853	     -9.05413394	     -1.73371938	     43.56020396	     -7.56867419	    -11.78144255	    -40.43648851	      0.84531998	     -3.47202251	     20.17904638	     21.73447083	      1.56387789	     -9.16931938
      4.23500000	    -19.19943011	     -1.50045423	     -6.39371083	     -1.57258610	     -0.01452143	     -0.33448956	     11.21996511	      7.15452865	      0.48569211	    -10.51904904	      8.98814298	     -8.79585496	     -1.65820020	     43.82952737	     -7.56934991	    -12.30417721	    -38.78740628	      0.93581899	     -2.80608566	     20.20468025	     21.67116860	      1.45272796	     -8.90891425
      4.24000000	    -19.21752239	     -1.33572379	     -6.51725151	     -1.56678281	     -0.01499923	     -0.33447611	     10.70413953	      6.94282369	      0.54740414	    -10.26963483	      9.12026837	     -8.54364419	     -1.59820221	     44.06324764	     -7.56769761	    -12.85400304	    -37.10487216	      1.00182147	     -2.13516445	     20.25288302	     21.60015339	      1.34033485	     -8.64861314
